<svg xmlns="http://www.w3.org/2000/svg" viewBox="0 0 800 650" width="800" height="650">
  <defs>
    <style>
      .box { stroke: #ffffff; stroke-width: 3; }
      .text { fill: #ffffff; font-family: 'Segoe UI', Tahoma, Geneva, Verdana, sans-serif; font-size: 16px; font-weight: 600; text-anchor: middle; }
      .arrow { stroke: #ffffff; stroke-width: 2.5; fill: none; marker-end: url(#arrowhead); }
      .diamond { stroke: #ffffff; stroke-width: 3; }
      .label { fill: #ffffff; font-family: 'Segoe UI', Tahoma, Geneva, Verdana, sans-serif; font-size: 14px; font-weight: 500; }
    </style>
    <marker id="arrowhead" markerWidth="10" markerHeight="10" refX="9" refY="3" orient="auto">
      <polygon points="0 0, 10 3, 0 6" fill="#ffffff" />
    </marker>
  </defs>

  <!-- Price Data -->
  <rect x="300" y="30" width="200" height="70" rx="8" class="box" fill="#2E86DE"/>
  <text x="400" y="70" class="text">Price Data</text>

  <!-- Technical Indicators -->
  <rect x="300" y="150" width="200" height="70" rx="8" class="box" fill="#EE5A6F"/>
  <text x="400" y="182" class="text">Technical</text>
  <text x="400" y="202" class="text">Indicators</text>

  <!-- Strategy Vector -->
  <rect x="300" y="270" width="200" height="70" rx="8" class="box" fill="#10AC84"/>
  <text x="400" y="302" class="text">Strategy</text>
  <text x="400" y="322" class="text">Vector</text>

  <!-- Trading Strategy -->
  <rect x="300" y="390" width="200" height="70" rx="8" class="box" fill="#F368E0"/>
  <text x="400" y="422" class="text">Trading</text>
  <text x="400" y="442" class="text">Strategy</text>

  <!-- Signal Diamond -->
  <g transform="translate(400, 540)">
    <polygon points="0,-50 70,0 0,50 -70,0" class="diamond" fill="#FD79A8"/>
    <text x="0" y="5" class="text">Signal</text>
  </g>

  <!-- Buy Action -->
  <rect x="50" y="580" width="150" height="60" rx="8" class="box" fill="#26DE81"/>
  <text x="125" y="615" class="text">Buy Action</text>

  <!-- Sell Action -->
  <rect x="325" y="580" width="150" height="60" rx="8" class="box" fill="#FC5C65"/>
  <text x="400" y="615" class="text">Sell Action</text>

  <!-- No Action (Hold) -->
  <rect x="600" y="580" width="150" height="60" rx="8" class="box" fill="#FED330"/>
  <text x="675" y="615" class="text">No Action</text>

  <!-- Arrows -->
  <!-- Price Data to Technical Indicators -->
  <path d="M 400 100 L 400 150" class="arrow"/>

  <!-- Technical Indicators to Strategy Vector -->
  <path d="M 400 220 L 400 270" class="arrow"/>

  <!-- Strategy Vector to Trading Strategy -->
  <path d="M 400 340 L 400 390" class="arrow"/>

  <!-- Trading Strategy to Signal -->
  <path d="M 400 460 L 400 490" class="arrow"/>

  <!-- Signal to Buy -->
  <path d="M 330 540 L 200 580" class="arrow"/>

  <!-- Signal to Sell -->
  <path d="M 400 590 L 400 580" class="arrow"/>

  <!-- Signal to Hold -->
  <path d="M 470 540 L 600 580" class="arrow"/>

  <!-- Labels on arrows to actions -->
  <text x="260" y="565" class="label">:buy</text>
  <text x="400" y="575" class="label">:sell</text>
  <text x="535" y="565" class="label">:hold</text>
</svg>
