<svg xmlns="http://www.w3.org/2000/svg" viewBox="0 0 1200 900" width="1200" height="900">
  <defs>
    <style>
      .box { stroke: #ffffff; stroke-width: 3; }
      .text { fill: #ffffff; font-family: 'Segoe UI', Tahoma, Geneva, Verdana, sans-serif; font-size: 15px; font-weight: 600; text-anchor: middle; }
      .small-text { fill: #ffffff; font-family: 'Segoe UI', Tahoma, Geneva, Verdana, sans-serif; font-size: 13px; font-weight: 500; text-anchor: middle; }
      .arrow { stroke: #ffffff; stroke-width: 2.5; fill: none; marker-end: url(#arrowhead); }
      .layer-box { stroke: #ffffff; stroke-width: 2; fill: none; stroke-dasharray: 5,5; opacity: 0.6; }
      .layer-title { fill: #ffffff; font-family: 'Segoe UI', Tahoma, Geneva, Verdana, sans-serif; font-size: 18px; font-weight: 700; }
      .diamond { stroke: #ffffff; stroke-width: 3; }
    </style>
    <marker id="arrowhead" markerWidth="10" markerHeight="10" refX="9" refY="3" orient="auto">
      <polygon points="0 0, 10 3, 0 6" fill="#ffffff" />
    </marker>
  </defs>

  <!-- Data Layer -->
  <rect x="20" y="20" width="1160" height="140" rx="8" class="layer-box"/>
  <text x="40" y="45" class="layer-title">Data Layer</text>

  <rect x="80" y="70" width="200" height="60" rx="8" class="box" fill="#2E86DE"/>
  <text x="180" y="97" class="text">Alpha Vantage</text>
  <text x="180" y="115" class="text">API</text>

  <rect x="350" y="70" width="200" height="60" rx="8" class="box" fill="#3867D6"/>
  <text x="450" y="97" class="text">Yahoo</text>
  <text x="450" y="115" class="text">Finance</text>

  <rect x="620" y="70" width="200" height="60" rx="8" class="box" fill="#4B7BEC"/>
  <text x="720" y="105" class="text">CSV Files</text>

  <rect x="880" y="70" width="200" height="60" rx="8" class="box" fill="#5352ED"/>
  <text x="980" y="105" class="text">Raw Data</text>

  <!-- Core Layer -->
  <rect x="20" y="180" width="1160" height="160" rx="8" class="layer-box"/>
  <text x="40" y="205" class="layer-title">Core Layer</text>

  <rect x="150" y="230" width="180" height="60" rx="8" class="box" fill="#10AC84"/>
  <text x="240" y="265" class="text">SQA::Stock</text>

  <rect x="400" y="230" width="200" height="60" rx="8" class="box" fill="#1DD1A1"/>
  <text x="500" y="265" class="text">SQA::DataFrame</text>

  <rect x="670" y="230" width="240" height="60" rx="8" class="box" fill="#00D2D3"/>
  <text x="790" y="257" class="text">SQA::DataFrame</text>
  <text x="790" y="275" class="text">::Data</text>

  <rect x="980" y="230" width="180" height="60" rx="8" class="box" fill="#01A3A4"/>
  <text x="1070" y="257" class="text">Price/Volume</text>
  <text x="1070" y="275" class="text">Arrays</text>

  <!-- Analysis Layer -->
  <rect x="20" y="360" width="1160" height="140" rx="8" class="layer-box"/>
  <text x="40" y="385" class="layer-title">Analysis Layer</text>

  <rect x="350" y="410" width="240" height="60" rx="8" class="box" fill="#EE5A6F"/>
  <text x="470" y="437" class="text">SQAI/TAI</text>
  <text x="470" y="455" class="text">Indicators</text>

  <rect x="680" y="410" width="200" height="60" rx="8" class="box" fill="#FF6B6B"/>
  <text x="780" y="437" class="text">Technical</text>
  <text x="780" y="455" class="text">Values</text>

  <!-- Strategy Layer -->
  <rect x="20" y="520" width="1160" height="220" rx="8" class="layer-box"/>
  <text x="40" y="545" class="layer-title">Strategy Layer</text>

  <rect x="80" y="570" width="200" height="60" rx="8" class="box" fill="#F368E0"/>
  <text x="180" y="597" class="text">Strategy</text>
  <text x="180" y="615" class="text">Vector</text>

  <rect x="360" y="570" width="200" height="60" rx="8" class="box" fill="#E056FD"/>
  <text x="460" y="597" class="text">Trading</text>
  <text x="460" y="615" class="text">Strategies</text>

  <!-- Diamond for Signal -->
  <g transform="translate(720, 600)">
    <polygon points="0,-40 60,0 0,40 -60,0" class="diamond" fill="#FD79A8"/>
    <text x="0" y="5" class="text">Signal</text>
  </g>

  <rect x="860" y="570" width="120" height="60" rx="8" class="box" fill="#26DE81"/>
  <text x="920" y="605" class="text">Buy</text>

  <rect x="860" y="650" width="120" height="60" rx="8" class="box" fill="#FC5C65"/>
  <text x="920" y="685" class="text">Sell</text>

  <rect x="1010" y="610" width="120" height="60" rx="8" class="box" fill="#FED330"/>
  <text x="1070" y="645" class="text">Hold</text>

  <!-- Execution Layer -->
  <rect x="20" y="760" width="1160" height="120" rx="8" class="layer-box"/>
  <text x="40" y="785" class="layer-title">Execution Layer</text>

  <rect x="250" y="805" width="180" height="60" rx="8" class="box" fill="#FF9F43"/>
  <text x="340" y="840" class="text">Portfolio</text>

  <rect x="510" y="805" width="180" height="60" rx="8" class="box" fill="#FFA502"/>
  <text x="600" y="840" class="text">Backtest</text>

  <rect x="770" y="805" width="200" height="60" rx="8" class="box" fill="#FF6348"/>
  <text x="870" y="832" class="text">Performance</text>
  <text x="870" y="850" class="text">Metrics</text>

  <!-- Arrows -->
  <!-- Data Layer -->
  <path d="M 180 130 L 980 130 L 980 70" class="arrow"/>
  <path d="M 450 130 L 980 130" class="arrow" stroke-dasharray="5,5"/>
  <path d="M 720 130 L 980 130" class="arrow" stroke-dasharray="5,5"/>

  <!-- To Core Layer -->
  <path d="M 980 130 L 980 180 L 240 180 L 240 230" class="arrow"/>

  <!-- Core Layer connections -->
  <path d="M 330 260 L 400 260" class="arrow"/>
  <path d="M 600 260 L 670 260" class="arrow"/>
  <path d="M 910 260 L 980 260" class="arrow"/>

  <!-- To Analysis Layer -->
  <path d="M 1070 290 L 1070 340 L 470 340 L 470 410" class="arrow"/>

  <!-- Analysis Layer -->
  <path d="M 590 440 L 680 440" class="arrow"/>

  <!-- To Strategy Layer -->
  <path d="M 780 470 L 780 500 L 180 500 L 180 570" class="arrow"/>

  <!-- Strategy Layer -->
  <path d="M 280 600 L 360 600" class="arrow"/>
  <path d="M 560 600 L 660 600" class="arrow"/>
  <path d="M 780 600 L 860 600" class="arrow"/>
  <path d="M 760 640 L 860 680" class="arrow"/>
  <path d="M 780 600 L 860 600 L 1010 640" class="arrow"/>

  <!-- To Execution Layer -->
  <path d="M 460 630 L 460 760 L 340 760 L 340 805" class="arrow"/>

  <!-- Execution Layer -->
  <path d="M 430 835 L 510 835" class="arrow"/>
  <path d="M 690 835 L 770 835" class="arrow"/>

  <!-- Labels -->
  <text x="510" y="125" class="small-text">Fetch</text>
  <text x="665" y="125" class="small-text">Scrape</text>
  <text x="815" y="125" class="small-text">Import</text>
  <text x="345" y="255" class="small-text">Contains</text>
  <text x="635" y="255" class="small-text">Metadata</text>
  <text x="525" y="435" class="small-text">Calculate</text>
</svg>
